<?xml version="1.0" standalone="no"?>
<!DOCTYPE svg PUBLIC "-//W3C//DTD SVG 20010904//EN"
 "http://www.w3.org/TR/2001/REC-SVG-20010904/DTD/svg10.dtd">
<svg version="1.0" xmlns="http://www.w3.org/2000/svg"
 width="198.000000pt" height="129.000000pt" viewBox="0 0 198.000000 129.000000"
 preserveAspectRatio="xMidYMid meet">

<g transform="translate(0.000000,129.000000) scale(0.100000,-0.100000)"
fill="#000000" stroke="none">
<path d="M494 818 c-64 -57 -110 -198 -79 -245 32 -48 98 -19 148 64 19 32 38
73 42 90 12 58 -22 123 -64 123 -6 0 -27 -15 -47 -32z m77 -15 c0 -10 2 -26 4
-36 7 -38 -27 -121 -66 -160 -45 -46 -73 -46 -77 -1 -4 42 33 138 70 180 32
37 68 45 69 17z"/>
<path d="M1317 784 c-9 -10 4 -34 19 -34 16 0 16 2 8 24 -6 17 -16 20 -27 10z"/>
<path d="M647 698 c-33 -43 -44 -100 -23 -117 19 -16 55 -8 87 18 29 24 18 39
-13 19 -13 -8 -31 -18 -42 -21 -17 -7 -18 -4 -13 29 6 37 43 88 58 79 4 -3 5
-15 1 -28 -5 -20 -4 -21 12 -8 25 21 17 55 -16 59 -20 2 -32 -5 -51 -30z"/>
<path d="M797 702 c-38 -39 -39 -107 -2 -124 21 -9 28 -8 45 7 27 24 26 40 -1
21 -28 -19 -49 -10 -49 20 0 20 5 24 29 24 36 0 63 25 59 54 -5 33 -48 33 -81
-2z m56 1 c11 -10 -14 -33 -36 -33 -19 0 -20 1 -2 20 19 21 28 24 38 13z"/>
<path d="M950 700 c-31 -33 -55 -93 -45 -110 11 -18 38 -11 67 17 19 18 28 22
28 12 0 -21 20 -38 36 -32 19 7 18 33 -1 33 -12 0 -14 8 -9 38 4 29 2 43 -11
55 -23 24 -33 21 -65 -13z m55 -10 c7 -12 -71 -98 -80 -88 -8 8 11 46 38 76
22 24 33 27 42 12z"/>
<path d="M1107 677 c-17 -42 -22 -77 -11 -77 3 0 25 16 48 35 24 19 45 35 48
35 3 0 3 -20 1 -44 -3 -24 -1 -46 5 -50 14 -8 27 103 13 117 -10 10 -15 8 -73
-21 -3 -2 -4 6 -1 16 10 39 -13 30 -30 -11z"/>
<path d="M1397 707 c-25 -18 -47 -87 -36 -109 12 -22 66 -23 93 -3 27 20 16
27 -25 15 -18 -6 -37 -10 -41 -10 -15 0 -8 33 13 67 17 26 24 31 35 23 19 -16
39 -3 23 16 -14 17 -40 18 -62 1z"/>
<path d="M1282 650 c-26 -62 -9 -79 18 -18 21 47 25 68 11 68 -4 0 -18 -22
-29 -50z"/>
<path d="M592 533 c-27 -5 -82 -85 -82 -118 0 -42 35 -56 85 -33 39 17 30 27
-12 13 -31 -11 -41 -11 -51 -1 -21 20 -3 44 39 51 21 4 41 11 45 16 3 6 -12 7
-38 3 -41 -7 -42 -6 -28 12 23 32 43 44 67 44 13 0 23 5 23 10 0 10 -7 11 -48
3z"/>
<path d="M1065 485 c-28 -27 -33 -76 -10 -95 12 -10 18 -10 32 1 27 23 45 76
33 99 -14 26 -26 25 -55 -5z m45 -19 c0 -34 -35 -75 -51 -59 -24 24 3 71 49
82 1 1 2 -10 2 -23z"/>
<path d="M1285 501 c-3 -5 7 -11 22 -13 l28 -3 -35 -19 -35 -19 28 -9 c15 -6
27 -14 27 -18 0 -13 -39 -32 -50 -25 -6 3 -10 1 -10 -4 0 -18 46 -12 64 8 16
17 16 20 0 35 -16 16 -15 18 5 33 17 12 20 18 10 29 -13 16 -45 19 -54 5z"/>
<path d="M751 475 c-13 -14 -19 -25 -14 -25 5 0 8 -13 5 -30 -5 -33 20 -52 41
-30 9 9 8 11 -8 8 -11 -2 -20 2 -19 10 1 6 2 19 3 27 0 9 11 20 24 25 16 6 18
9 5 9 -11 1 -15 6 -12 16 8 21 3 19 -25 -10z"/>
<path d="M945 490 c-4 -7 2 -9 19 -4 36 9 33 -8 -10 -56 -20 -22 -35 -42 -33
-45 8 -8 89 8 89 18 0 5 -13 7 -30 3 l-31 -6 32 39 c17 22 28 44 24 50 -8 14
-52 14 -60 1z"/>
<path d="M1165 490 c-4 -7 2 -9 19 -4 38 9 34 -15 -9 -56 -19 -19 -32 -37 -28
-41 5 -4 28 -4 53 0 29 4 40 9 32 15 -7 4 -25 5 -39 1 l-26 -6 32 36 c18 20
30 42 28 48 -5 16 -53 21 -62 7z"/>
<path d="M672 464 c-26 -18 -29 -49 -4 -63 15 -9 14 -10 -8 -11 -23 -1 -23 -2
-7 -11 28 -17 46 5 24 29 -15 16 -15 21 -2 38 12 15 16 16 24 5 10 -15 26 3
16 19 -8 14 -17 13 -43 -6z"/>
<path d="M805 400 c-3 -5 1 -10 9 -10 9 0 16 5 16 10 0 6 -4 10 -9 10 -6 0
-13 -4 -16 -10z"/>
</g>
</svg>
